<?xml version="1.0" encoding="UTF-8"?> <svg xmlns="http://www.w3.org/2000/svg" viewBox="0 0 118.22 118.22"><defs><style>.cls-1{fill:#fff;}.cls-2{fill:#006fcf;}</style></defs><g id="Layer_2" data-name="Layer 2"><g id="Layer_1-2" data-name="Layer 1"><rect class="cls-1" width="118.22" height="118.22"></rect><polygon class="cls-1" points="95.43 95.57 59.43 95.57 23.43 95.57 23.43 59.57 23.43 23.57 59.43 23.57 95.43 23.57 95.43 59.34 95.43 95.57"></polygon><path class="cls-2" d="M68.22,74.69,66.49,72.5v2.19H61.34v-3.1a7.42,7.42,0,0,1-2.26.33h-.82v2.76H50.68L49.4,72.86l-1.25,1.82H35.74V62.43H48.2l1.26,1.79,1.27-1.79h43.7V23.57h-72V52l2.4-5.6h4.9l1.43,3.16V46.4h6l.91,2.72L39,46.4H65.42v1.22a5.88,5.88,0,0,1,3.77-1.22h8l1.43,3.16V46.4h4.74L85,48.88V46.4h5.4V58.67H85.3l-1.53-2.39v2.39H76.43l-.7-1.82H74.05l-.69,1.82h-4.3a5.85,5.85,0,0,1-3.64-1.12v1.12H58.18l-1.73-2.19v2.19H28.93l-.7-1.82H26.54l-.69,1.82H22.43v36.9h72V74a5.22,5.22,0,0,1-2.73.74Z"></path><path class="cls-2" d="M94.43,64.37l0-.05H90.06A2.63,2.63,0,0,0,87.14,67a2.37,2.37,0,0,0,2.64,2.5h2a.77.77,0,0,1,.84.78.76.76,0,0,1-.84.76H87.38v1.8h4.3a2.68,2.68,0,0,0,2.74-1.71,2.86,2.86,0,0,0,.18-1,2.8,2.8,0,0,0-.18-1A2.4,2.4,0,0,0,92,67.66H90a.76.76,0,0,1-.81-.78.74.74,0,0,1,.81-.76h3.65l.78-1.75ZM81.37,66.89a.74.74,0,0,1,.81-.76h3.65l.8-1.81H82.24A2.63,2.63,0,0,0,79.32,67,2.37,2.37,0,0,0,82,69.46h2a.77.77,0,0,1,.84.78.76.76,0,0,1-.84.76H79.56v1.8h4.3a2.64,2.64,0,0,0,2.92-2.7,2.33,2.33,0,0,0-2.64-2.44h-2a.75.75,0,0,1-.81-.77ZM71.68,72.8h6.8V71H73.73V69.42h4.64V67.65H73.73V66.12h4.75V64.31h-6.8V72.8Zm-.5,0-2.81-3.11a2.71,2.71,0,0,0-.64-5.37H63.11V72.8h2v-3h1l2.52,3ZM67.53,68H65.15V66.12h2.38a1,1,0,0,1,1.07.94.94.94,0,0,1-1.07.94ZM62,67.15a2.71,2.71,0,0,0-2.93-2.84H54.42v8.48h2V70H59a2.76,2.76,0,0,0,3-2.84Zm-2.06,0a1,1,0,0,1-1.07,1H56.46V66.13H58.9a1,1,0,0,1,1.07,1ZM54.06,72.8l-3.41-4.28L54,64.31H51.54L49.47,67,47.4,64.31H44.84l3.39,4.24-3.38,4.24h2.48l2.08-2.73,2.07,2.73h2.58Zm-16.34,0h6.8V71H39.77V69.42h4.64V67.65H39.77V66.12h4.75V64.31h-6.8V72.8Z"></path><path class="cls-2" d="M88.38,56.77V48.29h-2V52.8l0,1h0l-.58-.94-3-4.58H80.3v8.48h2V52.06l0-1h0l.57.93L86,56.78h2.38Zm-10.79,0h2.32l-3.62-8.48H73.6L70,56.77h2.19L72.87,55h4l.72,1.78Zm-1.38-3.41H73.52l.8-2L74.85,50h0l.52,1.33.82,2ZM69.1,50.13h2.22V48.29H68.94a3.83,3.83,0,0,0-4.06,4.17v.15c0,2.53,1.47,4.16,3.92,4.17h.12L69.76,55h-.63a2.09,2.09,0,0,1-2.21-2.36v-.13a2.09,2.09,0,0,1,2.18-2.34Zm-7.47,6.64h2V48.29h-2v8.48Zm-.5,0-2.81-3.12a2.71,2.71,0,0,0-.64-5.37H53.06v8.48h2v-3h1l2.52,3h2.54ZM57.49,52H55.11V50.09h2.38a1,1,0,0,1,1.07.94,1,1,0,0,1-1.07.94Zm-12.6,4.8h6.8V55H46.94V53.39h4.64V51.62H46.94V50.09h4.75V48.28h-6.8v8.49Zm-3.57,0h2V48.29H40L38.34,53.2l-.27.93h0l-.28-.93-1.66-4.91H32.8v8.48h2V51.21l0-1.3h0l.41,1.3,1.94,5.56H39l1.94-5.56.41-1.3h0l0,1.3v5.56Zm-11.23,0h2.32l-3.62-8.48H26.1l-3.64,8.48h2.19L25.37,55h4l.72,1.78Zm-1.38-3.41H26l.8-2L27.35,50h0l.52,1.33.82,2Z"></path></g></g></svg> 