<svg width="22" height="22" viewBox="0 0 22 22" fill="none" xmlns="http://www.w3.org/2000/svg">
<path d="M1 11C1 6.28595 1 3.92893 2.46447 2.46447C3.92893 1 6.28595 1 11 1C15.714 1 18.0711 1 19.5355 2.46447C21 3.92893 21 6.28595 21 11C21 15.714 21 18.0711 19.5355 19.5355C18.0711 21 15.714 21 11 21C6.28595 21 3.92893 21 2.46447 19.5355C1 18.0711 1 15.714 1 11Z" stroke="white" stroke-width="2" stroke-linejoin="round"/>
<path d="M15.7374 10.9998C15.7374 13.6159 13.6166 15.7366 11.0005 15.7366C8.38443 15.7366 6.26367 13.6159 6.26367 10.9998C6.26367 8.3837 8.38443 6.26294 11.0005 6.26294C13.6166 6.26294 15.7374 8.3837 15.7374 10.9998Z" stroke="white" stroke-width="2"/>
<path d="M16.7979 5.21039L16.7875 5.21039" stroke="white" stroke-width="1.33333" stroke-linecap="round" stroke-linejoin="round"/>
</svg>
