<svg width="21" height="21" viewBox="0 0 21 21" fill="none" xmlns="http://www.w3.org/2000/svg">
<path fill-rule="evenodd" clip-rule="evenodd" d="M5.40921 9.04191C4.55368 9.04191 4.37512 9.20978 4.37512 10.0141V11.4725C4.37512 12.2768 4.55367 12.4447 5.40921 12.4447H7.47739V18.278C7.47739 19.0824 7.65595 19.2502 8.51149 19.2502H10.5797C11.4352 19.2502 11.6138 19.0824 11.6138 18.278V12.4447H13.936C14.5849 12.4447 14.7521 12.3261 14.9303 11.7396L15.3735 10.2812C15.6789 9.27643 15.4907 9.04191 14.3792 9.04191H11.6138V6.61136C11.6138 6.07441 12.0767 5.63913 12.6478 5.63913H15.591C16.4466 5.63913 16.6251 5.47126 16.6251 4.66691V2.72247C16.6251 1.91811 16.4466 1.75024 15.591 1.75024H12.6478C9.79229 1.75024 7.47739 3.92664 7.47739 6.61136V9.04191H5.40921Z" stroke="#CD2E29" stroke-width="1.3125" stroke-linejoin="round"/>
</svg>
