<svg width="32" height="32" viewBox="0 0 32 32" fill="none" xmlns="http://www.w3.org/2000/svg">
<path d="M1.33333 1.33325C0.596954 1.33325 0 1.93021 0 2.66659C0 3.40297 0.596954 3.99992 1.33333 3.99992H3.70573C3.89986 3.99992 4.08906 4.061 4.24655 4.17452C4.40403 4.28803 4.5218 4.44822 4.58318 4.63239L8.97917 17.8228C9.17438 18.4085 9.1992 19.039 9.04948 19.6379L8.6875 21.0885C8.15637 23.213 9.81011 25.3333 12 25.3333H28C28.7364 25.3333 29.3333 24.7363 29.3333 23.9999C29.3333 23.2635 28.7364 22.6666 28 22.6666H12C11.4808 22.6666 11.1475 22.2406 11.2734 21.7369L11.5464 20.6466C11.5927 20.4619 11.6993 20.2979 11.8495 20.1807C11.9996 20.0636 12.1846 19.9999 12.375 19.9999H26.6667C27.2408 20.0002 27.7506 19.633 27.9323 19.0885L31.487 8.42179C31.7749 7.55808 31.1318 6.66617 30.2214 6.66659H8.73958C8.54545 6.66659 8.35624 6.6055 8.19876 6.49199C8.04127 6.37848 7.92349 6.2183 7.8621 6.03413L6.59896 2.24471C6.41727 1.70012 5.90743 1.33295 5.33333 1.33325H1.33333ZM10.6667 26.6666C9.19391 26.6666 8 27.8605 8 29.3333C8 30.806 9.19391 31.9999 10.6667 31.9999C12.1394 31.9999 13.3333 30.806 13.3333 29.3333C13.3333 27.8605 12.1394 26.6666 10.6667 26.6666ZM26.6667 26.6666C25.1939 26.6666 24 27.8605 24 29.3333C24 30.806 25.1939 31.9999 26.6667 31.9999C28.1394 31.9999 29.3333 30.806 29.3333 29.3333C29.3333 27.8605 28.1394 26.6666 26.6667 26.6666Z" fill="#CD2E29"/>
</svg>
