<svg width="24" height="24" viewBox="0 0 24 24" fill="none" xmlns="http://www.w3.org/2000/svg">
<path d="M21.7705 16.8045L13.6829 9.62256L12.1025 11.203L19.2844 19.2905C19.9591 20.0558 21.1365 20.092 21.8565 19.372C22.5765 18.652 22.5357 17.4746 21.7705 16.8045Z" fill="white"/>
<path d="M12.0979 18.5749C12.0979 17.7644 11.4413 17.1123 10.6353 17.1123H4.67601C3.86999 17.1123 3.21338 17.7644 3.21338 18.5749V19.227H12.0979V18.5749Z" fill="white"/>
<path d="M12.2201 19.6799H3.09105C2.28503 19.6799 1.62842 20.332 1.62842 21.1426V22.2973C1.62842 22.5735 1.85483 22.7999 2.13105 22.7999H13.1801C13.4609 22.7999 13.6828 22.5735 13.6828 22.2973V21.1426C13.6828 20.332 13.0261 19.6799 12.2201 19.6799Z" fill="white"/>
<path d="M5.94141 8.07666L10.5631 3.45496L14.8813 7.77316L10.2596 12.3949L5.94141 8.07666Z" fill="white"/>
<path d="M15.2923 7.54764C15.7175 7.97286 16.4057 7.97289 16.8309 7.54764C17.2562 7.12242 17.2561 6.43422 16.8309 6.009L12.338 1.51613C12.1254 1.30351 11.8457 1.19721 11.5687 1.2C11.2918 1.19721 11.012 1.30351 10.7994 1.51613C10.3742 1.94138 10.3742 2.62955 10.7994 3.0548L15.2923 7.54764Z" fill="white"/>
<path d="M8.49098 14.3485C8.9162 14.7737 9.6044 14.7737 10.0297 14.3485C10.4549 13.9232 10.4548 13.235 10.0297 12.8098L5.53678 8.31697C5.32416 8.10434 5.0444 7.99805 4.77025 7.99805C4.49049 7.99805 4.21074 8.10434 3.99811 8.31697C3.57289 8.74219 3.57289 9.43039 3.99811 9.85561L8.49098 14.3485Z" fill="white"/>
</svg>
