<svg width="24" height="24" viewBox="0 0 24 24" fill="none" xmlns="http://www.w3.org/2000/svg">
<path d="M19.6812 3.84961C19.9498 3.84963 20.1572 4.08617 20.1226 4.35254L19.3159 10.5352C19.298 10.6722 19.1816 10.7754 19.0435 10.7754H6.77295C6.38149 10.7754 6.17313 10.313 6.43213 10.0195L6.71143 9.70312C9.99477 5.98203 14.7186 3.84961 19.6812 3.84961ZM19.4458 4.40137C14.7309 4.46752 10.258 6.5196 7.13135 10.0586L6.98389 10.2246H18.8022L18.813 10.1377L19.5464 4.51465L19.562 4.40039L19.4458 4.40137Z" fill="#0D0D0D" stroke="#0D0D0D" stroke-width="0.2"/>
<path d="M15.9375 12.8496H18.1875C18.65 12.8496 19.0254 13.225 19.0254 13.6875C19.0254 14.15 18.65 14.5254 18.1875 14.5254H15.9375C15.475 14.5254 15.0996 14.15 15.0996 13.6875C15.0996 13.225 15.475 12.8496 15.9375 12.8496ZM15.9375 13.4004C15.7787 13.4004 15.6504 13.5287 15.6504 13.6875C15.6504 13.8463 15.7787 13.9746 15.9375 13.9746H18.1875C18.3463 13.9746 18.4746 13.8463 18.4746 13.6875C18.4746 13.5287 18.3463 13.4004 18.1875 13.4004H15.9375Z" fill="#0D0D0D" stroke="#0D0D0D" stroke-width="0.2"/>
<path d="M20.5771 2.34961H21.375C21.4539 2.34961 21.5288 2.38421 21.5811 2.44336C21.6332 2.50249 21.6572 2.58099 21.6475 2.65918L20.5244 11.6504H20.5234V11.6553L19.7744 21.3965C19.7632 21.5396 19.6436 21.6504 19.5 21.6504H3.75C3.63538 21.6504 3.53244 21.579 3.49219 21.4717L3.02539 20.2275C2.57846 19.0357 2.34961 17.7729 2.34961 16.5C2.34961 15.2271 2.57846 13.9643 3.02539 12.7725L3.49219 11.5283C3.53244 11.421 3.63538 11.3496 3.75 11.3496H4.01953L4.04297 11.2822C4.0559 11.244 4.07409 11.2058 4.09863 11.1689C7.77166 5.65944 13.9555 2.34961 20.5771 2.34961ZM3.91602 11.9648L3.54102 12.9658C3.11724 14.0959 2.90039 15.2931 2.90039 16.5C2.90039 17.7069 3.11724 18.9041 3.54102 20.0342L3.91602 21.0352L3.94043 21.0996H19.2451L19.2529 21.0078L19.4541 18.3828L19.4629 18.2754H10.5C10.3481 18.2754 10.2246 18.1519 10.2246 18C10.2246 17.8481 10.3481 17.7246 10.5 17.7246H19.5049L19.5117 17.6328L19.9443 12.0078L19.9531 11.9004H3.94043L3.91602 11.9648ZM20.5771 2.90039C14.2527 2.90039 8.33903 6.00544 4.74707 11.1934L4.63867 11.3496H20.0068L20.0186 11.2627L21.0498 3.0127L21.0635 2.90039H20.5771Z" fill="#0D0D0D" stroke="#0D0D0D" stroke-width="0.2"/>
</svg>
