<svg width="56" height="56" viewBox="0 0 56 56" fill="none" xmlns="http://www.w3.org/2000/svg">
<rect width="56" height="56" rx="28" fill="#CD2E29"/>
<path d="M15.3467 18.36V28.5333C15.3467 38.5133 27.2467 43.4133 27.7533 43.6133C27.8333 43.6466 27.92 43.66 28 43.66C28.08 43.66 28.1667 43.6466 28.2467 43.6133C28.7533 43.4066 40.6533 38.5066 40.6533 28.5333V18.36C40.6533 18.0133 40.3867 17.7266 40.0467 17.6933C39.9867 17.6866 34.1867 17.12 28.42 12.48C28.1733 12.2866 27.8267 12.2866 27.5867 12.48C21.8333 17.1066 16.0133 17.6866 15.9533 17.6933C15.6067 17.7266 15.3467 18.0133 15.3467 18.36ZM16.68 18.94C18.34 18.68 23.1067 17.6333 28 13.8466C32.8933 17.6333 37.66 18.68 39.32 18.94V28.5333C39.32 36.8533 29.6867 41.52 28 42.2733C26.3133 41.52 16.68 36.86 16.68 28.5333V18.94Z" fill="white"/>
<path d="M27.6869 39.1466C27.7869 39.2 27.8935 39.2266 28.0002 39.2266C28.1069 39.2266 28.2135 39.2 28.3135 39.1466C31.4269 37.48 36.6535 33.88 36.6535 28.5333V21.5866C36.6535 21.2866 36.4602 21.0266 36.1735 20.9466C34.2869 20.4 31.4002 19.34 28.3669 17.3733C28.1469 17.2333 27.8602 17.2333 27.6402 17.3733C24.6002 19.34 21.7135 20.4 19.8335 20.9466C19.5469 21.0266 19.3535 21.2933 19.3535 21.5866V28.5333C19.3469 33.88 24.5735 37.48 27.6869 39.1466ZM20.6802 22.08C22.5602 21.5 25.2069 20.4733 28.0002 18.72C30.7935 20.4733 33.4402 21.5 35.3202 22.08V28.5333C35.3202 33.1533 30.4335 36.4466 28.0002 37.8C25.5669 36.4466 20.6802 33.1533 20.6802 28.5333V22.08Z" fill="white"/>
<path d="M26.5069 31.1534C26.6869 31.1534 26.8536 31.0801 26.9802 30.9601L32.9469 24.9934C33.2069 24.7334 33.2069 24.3134 32.9469 24.0534C32.6869 23.7934 32.2669 23.7934 32.0069 24.0534L26.5136 29.5467L24.0002 27.0334C23.7402 26.7734 23.3202 26.7734 23.0602 27.0334C22.8002 27.2934 22.8002 27.7134 23.0602 27.9734L26.0469 30.9601C26.1602 31.0801 26.3336 31.1534 26.5069 31.1534Z" fill="white"/>
</svg>
