<svg width="42" height="42" viewBox="0 0 42 42" fill="none" xmlns="http://www.w3.org/2000/svg">
<circle cx="21" cy="21" r="21" fill="white"/>
<rect width="24" height="24" transform="translate(9.6001 9.5997)" fill="white"/>
<path d="M18.7586 15.3119L18.3559 14.406C18.0927 13.8136 17.961 13.5174 17.7641 13.2907C17.5174 13.0066 17.1958 12.7976 16.836 12.6876C16.5489 12.5997 16.2248 12.5997 15.5765 12.5997C14.6282 12.5997 14.1541 12.5997 13.7561 12.782C13.2872 12.9967 12.8638 13.463 12.6951 13.9503C12.5518 14.364 12.5929 14.7891 12.6749 15.6394C13.5482 24.6899 18.5102 29.6518 27.5606 30.5251C28.4109 30.6072 28.8361 30.6482 29.2497 30.505C29.7371 30.3363 30.2033 29.9128 30.4181 29.444C30.6003 29.0459 30.6003 28.5718 30.6003 27.6235C30.6003 26.9752 30.6003 26.6511 30.5125 26.364C30.4024 26.0042 30.1934 25.6826 29.9093 25.4359C29.6827 25.239 29.3865 25.1074 28.7941 24.8441L27.8881 24.4414C27.2466 24.1563 26.9258 24.0138 26.5999 23.9828C26.2879 23.9531 25.9734 23.9969 25.6814 24.1106C25.3763 24.2294 25.1067 24.4541 24.5673 24.9035C24.0305 25.3509 23.7621 25.5746 23.4341 25.6944C23.1433 25.8006 22.7589 25.84 22.4527 25.7948C22.1072 25.7439 21.8427 25.6026 21.3136 25.3198C19.6676 24.4402 18.7599 23.5325 17.8802 21.8864C17.5975 21.3574 17.4561 21.0928 17.4052 20.7474C17.3601 20.4411 17.3994 20.0567 17.5056 19.766C17.6255 19.438 17.8491 19.1696 18.2965 18.6327C18.746 18.0934 18.9707 17.8237 19.0895 17.5186C19.2032 17.2266 19.247 16.9121 19.2173 16.6002C19.1863 16.2742 19.0437 15.9535 18.7586 15.3119Z" stroke="#CD2E29" stroke-width="2" stroke-linecap="round"/>
</svg>
