<svg width="42" height="42" viewBox="0 0 42 42" fill="none" xmlns="http://www.w3.org/2000/svg">
<circle cx="21" cy="21" r="21" fill="white"/>
<path d="M24.1001 18.5997C24.1001 19.9804 22.9808 21.0997 21.6001 21.0997C20.2194 21.0997 19.1001 19.9804 19.1001 18.5997C19.1001 17.219 20.2194 16.0997 21.6001 16.0997C22.9808 16.0997 24.1001 17.219 24.1001 18.5997Z" stroke="#CD2E29" stroke-width="2"/>
<path d="M22.8575 27.0933C22.5202 27.4181 22.0694 27.5997 21.6003 27.5997C21.1311 27.5997 20.6803 27.4181 20.343 27.0933C17.2544 24.1005 13.1153 20.7572 15.1338 15.9034C16.2252 13.279 18.845 11.5997 21.6003 11.5997C24.3555 11.5997 26.9753 13.279 28.0667 15.9034C30.0827 20.7511 25.9537 24.1108 22.8575 27.0933Z" stroke="#CD2E29" stroke-width="2"/>
<path d="M27.6001 29.5997C27.6001 30.7043 24.9138 31.5997 21.6001 31.5997C18.2864 31.5997 15.6001 30.7043 15.6001 29.5997" stroke="#CD2E29" stroke-width="2" stroke-linecap="round"/>
</svg>
