<svg width="42" height="42" viewBox="0 0 42 42" fill="none" xmlns="http://www.w3.org/2000/svg">
<circle cx="21" cy="21" r="21" fill="#CD2E29"/>
<rect width="24" height="24" transform="translate(9.6001 9.59961)" fill="#CD2E29"/>
<path d="M18.7586 15.3118L18.3559 14.4059C18.0927 13.8135 17.961 13.5173 17.7641 13.2906C17.5174 13.0065 17.1958 12.7975 16.836 12.6875C16.5489 12.5996 16.2248 12.5996 15.5765 12.5996C14.6282 12.5996 14.1541 12.5996 13.7561 12.7819C13.2872 12.9966 12.8638 13.4629 12.6951 13.9502C12.5518 14.3639 12.5929 14.789 12.6749 15.6393C13.5482 24.6898 18.5102 29.6517 27.5606 30.525C28.4109 30.6071 28.8361 30.6481 29.2497 30.5049C29.7371 30.3362 30.2033 29.9127 30.4181 29.4439C30.6003 29.0458 30.6003 28.5717 30.6003 27.6234C30.6003 26.9751 30.6003 26.651 30.5125 26.3639C30.4024 26.0041 30.1934 25.6825 29.9093 25.4358C29.6827 25.2389 29.3865 25.1073 28.7941 24.844L27.8881 24.4413C27.2466 24.1562 26.9258 24.0137 26.5999 23.9827C26.2879 23.953 25.9734 23.9968 25.6814 24.1105C25.3763 24.2293 25.1067 24.454 24.5673 24.9034C24.0305 25.3508 23.7621 25.5745 23.4341 25.6943C23.1433 25.8005 22.7589 25.8399 22.4527 25.7947C22.1072 25.7438 21.8427 25.6025 21.3136 25.3197C19.6676 24.4401 18.7599 23.5324 17.8802 21.8863C17.5975 21.3573 17.4561 21.0927 17.4052 20.7473C17.3601 20.441 17.3994 20.0566 17.5056 19.7659C17.6255 19.4379 17.8491 19.1695 18.2965 18.6326C18.746 18.0933 18.9707 17.8236 19.0895 17.5185C19.2032 17.2265 19.247 16.912 19.2173 16.6001C19.1863 16.2741 19.0437 15.9534 18.7586 15.3118Z" stroke="white" stroke-width="2" stroke-linecap="round"/>
</svg>
