<svg width="42" height="42" viewBox="0 0 42 42" fill="none" xmlns="http://www.w3.org/2000/svg">
<circle cx="21" cy="21" r="21" fill="white"/>
<path d="M11.6001 14.5997L18.5131 18.5243C21.0388 19.9582 22.1614 19.9582 24.6871 18.5243L31.6001 14.5997" stroke="#CD2E29" stroke-width="1.5" stroke-linejoin="round"/>
<path d="M20.1001 29.0997C19.6338 29.0936 19.1669 29.0847 18.6989 29.0729C15.5504 28.9938 13.9762 28.9542 12.8451 27.8181C11.7139 26.682 11.6812 25.1484 11.6159 22.0811C11.5948 21.0948 11.5948 20.1144 11.6159 19.1281C11.6812 16.0608 11.7139 14.5272 12.845 13.3911C13.9762 12.255 15.5504 12.2154 18.6989 12.1363C20.6394 12.0875 22.5608 12.0875 24.5013 12.1363C27.6498 12.2154 29.224 12.255 30.3551 13.3911C31.4863 14.5272 31.519 16.0608 31.5843 19.1281C31.594 19.5822 31.5992 19.7962 31.6 20.0997" stroke="#CD2E29" stroke-width="2" stroke-linecap="round" stroke-linejoin="round"/>
<path d="M28.6001 26.5997C28.6001 27.4281 27.9285 28.0997 27.1001 28.0997C26.2717 28.0997 25.6001 27.4281 25.6001 26.5997C25.6001 25.7713 26.2717 25.0997 27.1001 25.0997C27.9285 25.0997 28.6001 25.7713 28.6001 26.5997ZM28.6001 26.5997V27.0997C28.6001 27.9281 29.2717 28.5997 30.1001 28.5997C30.9285 28.5997 31.6001 27.9281 31.6001 27.0997V26.5997C31.6001 24.1144 29.5854 22.0997 27.1001 22.0997C24.6148 22.0997 22.6001 24.1144 22.6001 26.5997C22.6001 29.085 24.6148 31.0997 27.1001 31.0997" stroke="#CD2E29" stroke-width="2" stroke-linecap="round" stroke-linejoin="round"/>
</svg>
