<svg width="42" height="42" viewBox="0 0 42 42" fill="none" xmlns="http://www.w3.org/2000/svg">
<circle cx="21" cy="21" r="21" fill="#CD2E29"/>
<path d="M11.6001 14.5996L18.5131 18.5242C21.0388 19.9581 22.1614 19.9581 24.6871 18.5242L31.6001 14.5996" stroke="white" stroke-width="1.5" stroke-linejoin="round"/>
<path d="M20.1001 29.0996C19.6338 29.0935 19.1669 29.0846 18.6989 29.0728C15.5504 28.9937 13.9762 28.9541 12.8451 27.818C11.7139 26.6819 11.6812 25.1483 11.6159 22.081C11.5948 21.0947 11.5948 20.1143 11.6159 19.128C11.6812 16.0607 11.7139 14.5271 12.845 13.391C13.9762 12.2549 15.5504 12.2153 18.6989 12.1362C20.6394 12.0874 22.5608 12.0874 24.5013 12.1362C27.6498 12.2153 29.224 12.2549 30.3551 13.391C31.4863 14.5271 31.519 16.0607 31.5843 19.128C31.594 19.5821 31.5992 19.7961 31.6 20.0996" stroke="white" stroke-width="2" stroke-linecap="round" stroke-linejoin="round"/>
<path d="M28.6001 26.5996C28.6001 27.428 27.9285 28.0996 27.1001 28.0996C26.2717 28.0996 25.6001 27.428 25.6001 26.5996C25.6001 25.7712 26.2717 25.0996 27.1001 25.0996C27.9285 25.0996 28.6001 25.7712 28.6001 26.5996ZM28.6001 26.5996V27.0996C28.6001 27.928 29.2717 28.5996 30.1001 28.5996C30.9285 28.5996 31.6001 27.928 31.6001 27.0996V26.5996C31.6001 24.1143 29.5854 22.0996 27.1001 22.0996C24.6148 22.0996 22.6001 24.1143 22.6001 26.5996C22.6001 29.0849 24.6148 31.0996 27.1001 31.0996" stroke="white" stroke-width="2" stroke-linecap="round" stroke-linejoin="round"/>
</svg>
