<svg width="20" height="20" viewBox="0 0 20 20" fill="none" xmlns="http://www.w3.org/2000/svg">
<path d="M3.33332 1.86663C2.71109 1.86663 2.17776 2.08886 1.73332 2.5333C1.28887 2.97775 1.06665 3.52219 1.06665 4.16663C1.06665 4.81108 1.28887 5.35552 1.73332 5.79997C2.17776 6.24441 2.71109 6.46663 3.33332 6.46663C3.95554 6.46663 4.48887 6.24441 4.93332 5.79997C5.37776 5.35552 5.59998 4.81108 5.59998 4.16663C5.59998 3.52219 5.37776 2.97775 4.93332 2.5333C4.48887 2.08886 3.95554 1.86663 3.33332 1.86663ZM3.33332 3.1333C3.59998 3.1333 3.84443 3.2333 4.06665 3.4333C4.28887 3.6333 4.39998 3.87775 4.39998 4.16663C4.39998 4.45552 4.28887 4.69997 4.06665 4.89997C3.84443 5.09997 3.59998 5.19997 3.33332 5.19997C3.06665 5.19997 2.82221 5.09997 2.59998 4.89997C2.37776 4.69997 2.26665 4.45552 2.26665 4.16663C2.26665 3.87775 2.37776 3.6333 2.59998 3.4333C2.82221 3.2333 3.06665 3.1333 3.33332 3.1333ZM3.33332 13.5333C2.71109 13.5333 2.17776 13.7555 1.73332 14.2C1.28887 14.6444 1.06665 15.1889 1.06665 15.8333C1.06665 16.4777 1.28887 17.0222 1.73332 17.4666C2.17776 17.9111 2.71109 18.1333 3.33332 18.1333C3.95554 18.1333 4.48887 17.9111 4.93332 17.4666C5.37776 17.0222 5.59998 16.4777 5.59998 15.8333C5.59998 15.1889 5.37776 14.6444 4.93332 14.2C4.48887 13.7555 3.95554 13.5333 3.33332 13.5333ZM3.33332 14.8C3.59998 14.8 3.84443 14.9 4.06665 15.1C4.28887 15.3 4.39998 15.5444 4.39998 15.8333C4.39998 16.1222 4.28887 16.3666 4.06665 16.5666C3.84443 16.7666 3.59998 16.8666 3.33332 16.8666C3.06665 16.8666 2.82221 16.7666 2.59998 16.5666C2.37776 16.3666 2.26665 16.1222 2.26665 15.8333C2.26665 15.5444 2.37776 15.3 2.59998 15.1C2.82221 14.9 3.06665 14.8 3.33332 14.8ZM9.99998 1.86663C9.37776 1.86663 8.84443 2.08886 8.39998 2.5333C7.95554 2.97775 7.73332 3.52219 7.73332 4.16663C7.73332 4.81108 7.95554 5.35552 8.39998 5.79997C8.84443 6.24441 9.37776 6.46663 9.99998 6.46663C10.6222 6.46663 11.1555 6.24441 11.6 5.79997C12.0444 5.35552 12.2667 4.81108 12.2667 4.16663C12.2667 3.52219 12.0444 2.97775 11.6 2.5333C11.1555 2.08886 10.6222 1.86663 9.99998 1.86663ZM9.99998 3.1333C10.2667 3.1333 10.5111 3.2333 10.7333 3.4333C10.9555 3.6333 11.0667 3.87775 11.0667 4.16663C11.0667 4.45552 10.9555 4.69997 10.7333 4.89997C10.5111 5.09997 10.2667 5.19997 9.99998 5.19997C9.73332 5.19997 9.48887 5.09997 9.26665 4.89997C9.04443 4.69997 8.93332 4.45552 8.93332 4.16663C8.93332 3.87775 9.04443 3.6333 9.26665 3.4333C9.48887 3.2333 9.73332 3.1333 9.99998 3.1333ZM9.99998 13.5333C9.37776 13.5333 8.84443 13.7555 8.39998 14.2C7.95554 14.6444 7.73332 15.1889 7.73332 15.8333C7.73332 16.4777 7.95554 17.0222 8.39998 17.4666C8.84443 17.9111 9.37776 18.1333 9.99998 18.1333C10.6222 18.1333 11.1555 17.9111 11.6 17.4666C12.0444 17.0222 12.2667 16.4777 12.2667 15.8333C12.2667 15.1889 12.0444 14.6444 11.6 14.2C11.1555 13.7555 10.6222 13.5333 9.99998 13.5333ZM9.99998 14.8C10.2667 14.8 10.5111 14.9 10.7333 15.1C10.9555 15.3 11.0667 15.5444 11.0667 15.8333C11.0667 16.1222 10.9555 16.3666 10.7333 16.5666C10.5111 16.7666 10.2667 16.8666 9.99998 16.8666C9.73332 16.8666 9.48887 16.7666 9.26665 16.5666C9.04443 16.3666 8.93332 16.1222 8.93332 15.8333C8.93332 15.5444 9.04443 15.3 9.26665 15.1C9.48887 14.9 9.73332 14.8 9.99998 14.8ZM16.6667 1.86663C16.0444 1.86663 15.5111 2.08886 15.0667 2.5333C14.6222 2.97775 14.4 3.52219 14.4 4.16663C14.4 4.81108 14.6222 5.35552 15.0667 5.79997C15.5111 6.24441 16.0444 6.46663 16.6667 6.46663C17.2889 6.46663 17.8222 6.24441 18.2667 5.79997C18.7111 5.35552 18.9333 4.81108 18.9333 4.16663C18.9333 3.52219 18.7111 2.97775 18.2667 2.5333C17.8222 2.08886 17.2889 1.86663 16.6667 1.86663ZM16.6667 3.1333C16.9333 3.1333 17.1778 3.2333 17.4 3.4333C17.6222 3.6333 17.7333 3.87775 17.7333 4.16663C17.7333 4.45552 17.6222 4.69997 17.4 4.89997C17.1778 5.09997 16.9333 5.19997 16.6667 5.19997C16.4 5.19997 16.1555 5.09997 15.9333 4.89997C15.7111 4.69997 15.6 4.45552 15.6 4.16663C15.6 3.87775 15.7111 3.6333 15.9333 3.4333C16.1555 3.2333 16.4 3.1333 16.6667 3.1333ZM16.6667 13.5333C16.0444 13.5333 15.5111 13.7555 15.0667 14.2C14.6222 14.6444 14.4 15.1889 14.4 15.8333C14.4 16.4777 14.6222 17.0222 15.0667 17.4666C15.5111 17.9111 16.0444 18.1333 16.6667 18.1333C17.2889 18.1333 17.8222 17.9111 18.2667 17.4666C18.7111 17.0222 18.9333 16.4777 18.9333 15.8333C18.9333 15.1889 18.7111 14.6444 18.2667 14.2C17.8222 13.7555 17.2889 13.5333 16.6667 13.5333ZM16.6667 14.8C16.9333 14.8 17.1778 14.9 17.4 15.1C17.6222 15.3 17.7333 15.5444 17.7333 15.8333C17.7333 16.1222 17.6222 16.3666 17.4 16.5666C17.1778 16.7666 16.9333 16.8666 16.6667 16.8666C16.4 16.8666 16.1555 16.7666 15.9333 16.5666C15.7111 16.3666 15.6 16.1222 15.6 15.8333C15.6 15.5444 15.7111 15.3 15.9333 15.1C16.1555 14.9 16.4 14.8 16.6667 14.8ZM2.73332 5.79997V14.1333C2.73332 14.3111 2.78887 14.4666 2.89998 14.6C3.01109 14.7333 3.15554 14.8 3.33332 14.8C3.5111 14.8 3.65554 14.7333 3.76665 14.6C3.87776 14.4666 3.93332 14.3333 3.93332 14.2V5.79997C3.93332 5.66663 3.87776 5.5333 3.76665 5.39997C3.65554 5.26663 3.5111 5.19997 3.33332 5.19997C3.15554 5.19997 3.01109 5.26663 2.89998 5.39997C2.78887 5.5333 2.73332 5.66663 2.73332 5.79997ZM9.39998 5.79997V14.1333C9.39998 14.3111 9.45554 14.4666 9.56665 14.6C9.67776 14.7333 9.82221 14.8 9.99998 14.8C10.1778 14.8 10.3222 14.7333 10.4333 14.6C10.5444 14.4666 10.6 14.3333 10.6 14.2V5.79997C10.6 5.66663 10.5444 5.5333 10.4333 5.39997C10.3222 5.26663 10.1778 5.19997 9.99998 5.19997C9.82221 5.19997 9.67776 5.26663 9.56665 5.39997C9.45554 5.5333 9.39998 5.66663 9.39998 5.79997ZM16.0667 5.79997V9.1333C16.0667 9.22219 16.0444 9.28886 16 9.3333C15.9555 9.37775 15.9111 9.39997 15.8667 9.39997H3.33332C3.15554 9.39997 3.01109 9.45552 2.89998 9.56663C2.78887 9.67775 2.73332 9.82219 2.73332 9.99997C2.73332 10.1777 2.78887 10.3222 2.89998 10.4333C3.01109 10.5444 3.15554 10.6 3.33332 10.6H15.8667C16.2667 10.6 16.6 10.4666 16.8667 10.2C17.1333 9.9333 17.2667 9.57775 17.2667 9.1333V5.86663C17.2667 5.68886 17.2111 5.5333 17.1 5.39997C16.9889 5.26663 16.8444 5.19997 16.6667 5.19997C16.4889 5.19997 16.3444 5.26663 16.2333 5.39997C16.1222 5.5333 16.0667 5.66663 16.0667 5.79997Z" fill="#191919"/>
</svg>
