<svg width="20" height="20" viewBox="0 0 20 20" fill="none" xmlns="http://www.w3.org/2000/svg">
<g clip-path="url(#clip0_28_5087)">
<path d="M11.8666 3.73333C11.8666 3.55556 11.8111 3.41111 11.7 3.3C11.5889 3.18889 11.4444 3.13333 11.2666 3.13333H4.99998C4.8222 3.13333 4.67775 3.18889 4.56664 3.3C4.45553 3.41111 4.39998 3.55556 4.39998 3.73333V8.73333C4.39998 8.91111 4.45553 9.06667 4.56664 9.2C4.67775 9.33333 4.8222 9.4 4.99998 9.4H11.2666C11.4444 9.4 11.5889 9.33333 11.7 9.2C11.8111 9.06667 11.8666 8.91111 11.8666 8.73333V3.73333ZM10.6 8.13333H5.59998V4.4H10.6V8.13333ZM19.0666 4.4L16.5333 3.2C16.4 3.11111 16.2444 3.08889 16.0666 3.13333C15.8889 3.17778 15.7666 3.27778 15.7 3.43333C15.6333 3.58889 15.6222 3.75555 15.6666 3.93333C15.7111 4.11111 15.8222 4.22222 16 4.26667L16.9333 4.8L16.8666 5C16.8666 5.4 16.9889 5.75556 17.2333 6.06667C17.4778 6.37778 17.7778 6.6 18.1333 6.73333V14.3333C18.1333 14.5111 18.0666 14.6667 17.9333 14.8C17.8 14.9333 17.6555 15 17.5 15C17.3444 15 17.2 14.9333 17.0666 14.8C16.9333 14.6667 16.8666 14.5111 16.8666 14.3333V9.33333C16.8666 8.62222 16.6111 7.97778 16.1 7.4C15.5889 6.82222 15.0222 6.46667 14.4 6.33333V2.46667C14.4 1.8 14.1555 1.22222 13.6666 0.733332C13.1778 0.244444 12.6 -1.90735e-06 11.9333 -1.90735e-06H4.39998C3.73331 -1.90735e-06 3.14442 0.244444 2.63331 0.733332C2.1222 1.22222 1.86664 1.8 1.86664 2.46667V16.4667L0.999976 16.9333C0.733309 17.0667 0.599976 17.2444 0.599976 17.4667V19.3333C0.599976 19.5111 0.666642 19.6667 0.799976 19.8C0.933309 19.9333 1.08886 20 1.26664 20H15C15.1778 20 15.3222 19.9333 15.4333 19.8C15.5444 19.6667 15.6 19.5111 15.6 19.3333V17.4667C15.6 17.2444 15.4889 17.0667 15.2666 16.9333L14.4 16.4667V7.6C14.7111 7.73333 14.9889 7.96667 15.2333 8.3C15.4778 8.63333 15.6 8.97778 15.6 9.33333V14.3333C15.6 14.8667 15.7889 15.3222 16.1666 15.7C16.5444 16.0778 16.9889 16.2667 17.5 16.2667C18.0111 16.2667 18.4555 16.0778 18.8333 15.7C19.2111 15.3222 19.4 14.8667 19.4 14.3333V5C19.4 4.73333 19.2889 4.53333 19.0666 4.4ZM14.4 18.7333H1.86664V17.8667L2.79998 17.4C3.0222 17.3111 3.13331 17.1333 3.13331 16.8667V2.46667C3.13331 2.15555 3.25553 1.87778 3.49998 1.63333C3.74442 1.38889 4.04442 1.26667 4.39998 1.26667H11.9333C12.2444 1.26667 12.5222 1.38889 12.7666 1.63333C13.0111 1.87778 13.1333 2.15555 13.1333 2.46667V16.8667C13.1333 17.1333 13.2444 17.3111 13.4666 17.4L14.4 17.8667V18.7333Z" fill="#191919"/>
</g>
<defs>
<clipPath id="clip0_28_5087">
<rect width="20" height="20" fill="white" transform="matrix(1 0 0 -1 0 20)"/>
</clipPath>
</defs>
</svg>
