<svg width="20" height="20" viewBox="0 0 20 20" fill="none" xmlns="http://www.w3.org/2000/svg">
<g clip-path="url(#clip0_28_5083)">
<path d="M20 11.8C20 14.0666 19.3333 16.0888 18 17.8666C17.8667 18.0444 17.6889 18.1444 17.4667 18.1666C17.2444 18.1888 17.0444 18.1333 16.8667 18C16.6889 17.8666 16.5889 17.7 16.5667 17.5C16.5444 17.3 16.6 17.1111 16.7333 16.9333C17.8889 15.4222 18.4667 13.7111 18.4667 11.8C18.4667 10.2888 18.0889 8.88885 17.3333 7.59996C16.5778 6.31107 15.5444 5.28885 14.2333 4.53329C12.9222 3.77774 11.5111 3.39996 10 3.39996C8.48889 3.39996 7.07778 3.77774 5.76667 4.53329C4.45556 5.28885 3.42222 6.31107 2.66667 7.59996C1.91111 8.88885 1.53333 10.2888 1.53333 11.8C1.53333 13.7111 2.11111 15.4222 3.26667 16.9333C3.4 17.1111 3.45556 17.3 3.43333 17.5C3.41111 17.7 3.31111 17.8666 3.13333 18C2.95556 18.1333 2.75556 18.1888 2.53333 18.1666C2.31111 18.1444 2.13333 18.0444 2 17.8666C0.666667 16.0888 0 14.0666 0 11.8C0 10.0222 0.444444 8.36662 1.33333 6.83329C2.22222 5.29996 3.43333 4.08885 4.96667 3.19996C6.5 2.31107 8.17778 1.86662 10 1.86662C11.8222 1.86662 13.5 2.31107 15.0333 3.19996C16.5667 4.08885 17.7778 5.29996 18.6667 6.83329C19.5556 8.36662 20 10.0222 20 11.8ZM14.9333 7.13329C15.1111 7.26662 15.2 7.4444 15.2 7.66662C15.2 7.88885 15.1111 8.06662 14.9333 8.19996L12.4 10.8C12.6222 11.2 12.7333 11.6222 12.7333 12.0666C12.7333 12.8222 12.4667 13.4666 11.9333 14C11.4 14.5333 10.7556 14.8 10 14.8C9.24444 14.8 8.6 14.5333 8.06667 14C7.53333 13.4666 7.26667 12.8222 7.26667 12.0666C7.26667 11.3111 7.53333 10.6666 8.06667 10.1333C8.6 9.59996 9.24444 9.33329 10 9.33329C10.4444 9.33329 10.8667 9.4444 11.2667 9.66662L13.8667 7.13329C14 6.95551 14.1778 6.86662 14.4 6.86662C14.6222 6.86662 14.8 6.95551 14.9333 7.13329ZM11.2 12.0666C11.2 11.7555 11.0778 11.4888 10.8333 11.2666C10.5889 11.0444 10.3111 10.9333 10 10.9333C9.68889 10.9333 9.41111 11.0444 9.16667 11.2666C8.92222 11.4888 8.8 11.7555 8.8 12.0666C8.8 12.3777 8.92222 12.6555 9.16667 12.9C9.41111 13.1444 9.68889 13.2666 10 13.2666C10.3111 13.2666 10.5889 13.1444 10.8333 12.9C11.0778 12.6555 11.2 12.3777 11.2 12.0666Z" fill="#191919"/>
</g>
<defs>
<clipPath id="clip0_28_5083">
<rect width="20" height="20" fill="white" transform="matrix(1 0 0 -1 0 20)"/>
</clipPath>
</defs>
</svg>
