<svg width="21" height="21" viewBox="0 0 21 21" fill="none" xmlns="http://www.w3.org/2000/svg">
<path d="M5.75398 6.497C5.75398 3.87564 7.87901 1.75061 10.5004 1.75061C13.1217 1.75061 15.2468 3.87564 15.2468 6.497C15.2468 10.6513 15.4538 12.728 19.2504 14.3895C17.3059 14.8756 16.8198 15.3617 16.3337 17.3062C12.9309 17.3062 12.4448 19.2506 10.5004 19.2506C8.55592 19.2506 8.06981 17.3062 4.66703 17.3062C4.18092 15.3617 3.69481 14.8756 1.75037 14.3895C5.54689 12.728 5.75398 10.6513 5.75398 6.497Z" stroke="#CD2E29" stroke-width="1.3125" stroke-linecap="round" stroke-linejoin="round"/>
<path d="M1.75037 14.001C5.09598 12.1785 5.09598 10.4575 2.58677 7.87604" stroke="#CD2E29" stroke-width="1.3125" stroke-linecap="round"/>
<path d="M19.2504 14.001C15.9048 12.1785 15.9048 10.4575 18.414 7.87604" stroke="#CD2E29" stroke-width="1.3125" stroke-linecap="round"/>
</svg>
