<svg width="21" height="21" viewBox="0 0 21 21" fill="none" xmlns="http://www.w3.org/2000/svg">
<path d="M2.18738 10.4998C2.18738 6.58121 2.18738 4.62193 3.40472 3.40459C4.62205 2.18726 6.58133 2.18726 10.4999 2.18726C14.4184 2.18726 16.3777 2.18726 17.595 3.40459C18.8124 4.62193 18.8124 6.58121 18.8124 10.4998C18.8124 14.4183 18.8124 16.3776 17.595 17.5949C16.3777 18.8123 14.4184 18.8123 10.4999 18.8123C6.58133 18.8123 4.62205 18.8123 3.40472 17.5949C2.18738 16.3776 2.18738 14.4183 2.18738 10.4998Z" stroke="#CD2E29" stroke-width="1.3125" stroke-linejoin="round"/>
<path d="M9.09439 10.3053C9.45318 10.3567 9.78563 10.1074 9.83696 9.74863C9.88828 9.38985 9.63903 9.05739 9.28024 9.00607L9.18732 9.65571L9.09439 10.3053ZM15.3123 8.96845C15.6748 8.96845 15.9686 8.67463 15.9686 8.3122C15.9686 7.94976 15.6748 7.65595 15.3123 7.65595V8.3122V8.96845ZM12.4686 5.24969C12.4686 4.88726 12.1748 4.59344 11.8123 4.59344C11.4499 4.59344 11.1561 4.88726 11.1561 5.24969H11.8123H12.4686ZM11.8123 12.6872H11.1561C11.1561 14.0161 10.0788 15.0934 8.74982 15.0934V15.7497V16.4059C10.8036 16.4059 12.4686 14.741 12.4686 12.6872H11.8123ZM8.74982 15.7497V15.0934C7.42088 15.0934 6.34357 14.0161 6.34357 12.6872H5.68732H5.03107C5.03107 14.741 6.69601 16.4059 8.74982 16.4059V15.7497ZM5.68732 12.6872H6.34357C6.34357 11.3583 7.42088 10.2809 8.74982 10.2809V9.6247V8.96845C6.69601 8.96845 5.03107 10.6334 5.03107 12.6872H5.68732ZM8.74982 9.6247V10.2809C8.86717 10.2809 8.98219 10.2893 9.09439 10.3053L9.18732 9.65571L9.28024 9.00607C9.10667 8.98124 8.92954 8.96845 8.74982 8.96845V9.6247ZM15.3123 8.3122V7.65595C14.6346 7.65595 13.9056 7.37665 13.3487 6.91152C12.7924 6.44686 12.4686 5.852 12.4686 5.24969H11.8123H11.1561C11.1561 6.33876 11.7366 7.27515 12.5074 7.9189C13.2776 8.56218 14.2987 8.96845 15.3123 8.96845V8.3122ZM11.8123 5.24969H11.1561V12.6872H11.8123H12.4686V5.24969H11.8123Z" fill="#CD2E29"/>
</svg>
