<svg width="24" height="24" viewBox="0 0 24 24" fill="none" xmlns="http://www.w3.org/2000/svg">
<path fill-rule="evenodd" clip-rule="evenodd" d="M11.6682 0C15.6738 0 18.921 3.24717 18.921 7.25283C18.921 11.7138 15.2575 16.6274 11.9915 19.3412C11.8045 19.4965 11.5395 19.4966 11.3526 19.3414C8.07638 16.6216 4.41534 11.7379 4.41534 7.25283C4.41539 3.24717 7.66256 0 11.6682 0ZM17.6664 17.731C19.0315 18.0282 20.1412 18.4177 20.8868 18.8652C21.4294 19.191 21.7364 19.503 21.7364 19.7723C21.7364 20.3287 20.7349 20.9229 19.1157 21.4335L19.1129 21.4345L19.1126 21.4335C17.2193 22.0306 14.5882 22.4 11.6682 22.4C8.74814 22.4 6.11705 22.0306 4.22381 21.4335C4.21214 21.4299 4.20052 21.4265 4.1888 21.4234C2.58844 20.9151 1.59998 20.3251 1.59998 19.7723C1.59998 19.5031 1.90702 19.1911 2.44959 18.8654C3.19505 18.4178 4.30486 18.0285 5.66991 17.7312C6.10139 17.638 6.37561 17.2127 6.28242 16.7812C6.18923 16.3497 5.76389 16.0755 5.33241 16.1687C3.8048 16.5013 2.52947 16.9571 1.63083 17.4966C0.589359 18.1219 0 18.8927 0 19.7723C0 21.1005 1.41375 22.2146 3.70256 22.9448C3.71573 22.9497 3.72909 22.9543 3.74259 22.9586C5.78278 23.602 8.58586 24 11.6682 24C14.7505 24 17.5536 23.602 19.5938 22.9585L19.5935 22.9576C21.9061 22.2278 23.3364 21.1083 23.3364 19.7723C23.3364 18.8926 22.747 18.1217 21.7055 17.4965C20.8068 16.9569 19.5315 16.5011 18.0039 16.1685C17.5725 16.0754 17.1471 16.3496 17.0539 16.7811C16.9607 17.2125 17.235 17.6378 17.6664 17.731ZM11.6682 3.55317C9.62489 3.55317 7.96856 5.20955 7.96856 7.25283C7.96856 9.29606 9.62494 10.9525 11.6682 10.9525C13.7114 10.9525 15.3678 9.29611 15.3678 7.25283C15.3678 5.20955 13.7115 3.55317 11.6682 3.55317Z" fill="black"/>
</svg>
